PathFileType	4	(X/Y/Z)	/Users/itak/Documents/Research/Walk-IL/dataset/trc/00049_00006.trc
DataRate	CameraRate	NumFrames	NumMarkers	Units	OrigDataRate	OrigDataStartFrame	OrigNumFrames
100.000000	100.000000	4	53	mm	100.000000	62	499
Frame#	Time	RPSI			LPSI			L3			STRN			T10			C7			CLAV			RBAK			LBAK			LSHO			LUPA			LAEL			LAOL			LWTS			LWPS			LFRA			LIFD			LHPS			LHTS			RSHO			RUPA			RAEL			RAOL			RWTS			RWPS			RFRA			RIFD			RHTS			RHPS			RBHD			LFHD			RFHD			LBHD			LHIP			RHIP			RASI			LASI			LKNE			LTHI			LANK			LTIP			LTOE			LMT1			LMT5			LHEE			RKNE			RTHI			RANK			RTIP			RTOE			RMT1			RMT5			RHEE			
		X1	Y1	Z1	X2	Y2	Z2	X3	Y3	Z3	X4	Y4	Z4	X5	Y5	Z5	X6	Y6	Z6	X7	Y7	Z7	X8	Y8	Z8	X9	Y9	Z9	X10	Y10	Z10	X11	Y11	Z11	X12	Y12	Z12	X13	Y13	Z13	X14	Y14	Z14	X15	Y15	Z15	X16	Y16	Z16	X17	Y17	Z17	X18	Y18	Z18	X19	Y19	Z19	X20	Y20	Z20	X21	Y21	Z21	X22	Y22	Z22	X23	Y23	Z23	X24	Y24	Z24	X25	Y25	Z25	X26	Y26	Z26	X27	Y27	Z27	X28	Y28	Z28	X29	Y29	Z29	X30	Y30	Z30	X31	Y31	Z31	X32	Y32	Z32	X33	Y33	Z33	X34	Y34	Z34	X35	Y35	Z35	X36	Y36	Z36	X37	Y37	Z37	X38	Y38	Z38	X39	Y39	Z39	X40	Y40	Z40	X41	Y41	Z41	X42	Y42	Z42	X43	Y43	Z43	X44	Y44	Z44	X45	Y45	Z45	X46	Y46	Z46	X47	Y47	Z47	X48	Y48	Z48	X49	Y49	Z49	X50	Y50	Z50	X51	Y51	Z51	X52	Y52	Z52	X53	Y53	Z53	

63	0.62	946.4134521484375	1025.973510742188	-204.9871368408203	930.8843383789062	1021.7890625	-380.3324279785156	943.0933227539062	1073.302856445312	-300.0054016113281	1182.578979492188	1272.860595703125	-308.8673706054688	918.0271606445312	1207.3994140625	-304.1325988769531	971.5470581054688	1475.344970703125	-312.7306823730469	1151.5029296875	1387.004272460938	-313.0772399902344	912.3847045898438	1337.2490234375	-233.6903991699219	948.70947265625	1435.78173828125	-413.1134033203125	1051.95849609375	1438.950317382812	-486.7844543457031	1036.756713867188	1310.547973632812	-562.23974609375	1062.416015625	1096.097778320312	-579.7157592773438	1002.279235839844	1080.297485351562	-492.7674255371094	1161.462158203125	859.0634155273438	-520.3211669921875	1101.928100585938	847.21630859375	-578.777587890625	1085.29443359375	987.7498168945312	-588.0557861328125	1182.14208984375	673.2418212890625	-495.8761291503906	1136.909790039062	767.1171875	-576.2056274414062	1187.962646484375	777.9818725585938	-521.11572265625	1041.10498046875	1441.212280273438	-135.9150695800781	1032.8935546875	1372.133911132812	-71.70553588867188	1017.197082519531	1103.926879882812	-45.18068313598633	1029.307983398438	1083.542846679688	-141.9698944091797	1164.609008789062	858.0487060546875	-93.18375396728516	1100.089721679688	840.5768432617188	-37.2540397644043	1033.871215820312	1025.27978515625	-39.8425407409668	1170.67041015625	672.2351684570312	-119.0535354614258	1192.632202148438	757.4334106445312	-96.41828155517578	1142.3427734375	751.2730712890625	-37.78897476196289	1009.543701171875	1652.695068359375	-379.989501953125	1168.346923828125	1688.53125	-237.1161193847656	1182.0380859375	1695.623168945312	-362.2001647949219	1003.371765136719	1638.269287109375	-243.2806091308594	1028.8115234375	952.7476196289062	-472.2933959960938	1014.15576171875	955.3505859375	-129.3986053466797	1139.215698242188	967.4287109375	-156.2067565917969	1144.998901367188	958.5665283203125	-425.3247680664062	1067.016357421875	488.3068237304688	-437.1904907226562	1046.292114257812	630.9185791015625	-469.4170532226562	964.649169921875	38.79917907714844	-458.8763122558594	1005.508544921875	256.0541687011719	-463.1808471679688	1170.440795898438	30.83044052124023	-474.6140441894531	1127.494262695312	32.14743804931641	-415.3272705078125	1062.986083984375	28.84286880493164	-507.6467895507812	922.8043823242188	35.01433944702148	-378.9930419921875	1063.583984375	507.0697631835938	-148.955322265625	1089.780395507812	778.0827026367188	-120.609260559082	979.2412719726562	34.80335998535156	-155.8914031982422	1038.886840820312	387.4201049804688	-144.3970794677734	1198.384765625	27.48157119750977	-184.7659912109375	1138.199462890625	33.90360260009766	-226.8624572753906	1104.455810546875	35.6025276184082	-135.3659362792969	934.715087890625	35.28289413452148	-213.3231048583984	
64	0.63	946.4134521484375	1025.949829101562	-205.0527496337891	930.9398803710938	1021.7431640625	-380.3733215332031	943.12255859375	1073.316284179688	-300.0810241699219	1182.53759765625	1272.872924804688	-308.9091491699219	917.9729614257812	1207.438110351562	-304.1867065429688	971.5269165039062	1475.358276367188	-312.7744750976562	1151.485229492188	1387.019287109375	-313.0984802246094	912.3451538085938	1337.264770507812	-233.7670135498047	948.6925048828125	1435.818115234375	-413.1847839355469	1051.9775390625	1438.99853515625	-486.8236389160156	1036.833251953125	1310.616088867188	-562.3095703125	1062.571533203125	1096.174438476562	-579.8007202148438	1002.454162597656	1080.329711914062	-492.8579711914062	1161.928588867188	859.3225708007812	-520.2305908203125	1102.41015625	847.2891845703125	-578.6758422851562	1085.60791015625	987.8455810546875	-588.092529296875	1182.572875976562	673.498046875	-495.8418884277344	1137.497680664062	767.2338256835938	-576.02392578125	1188.406372070312	778.2409057617188	-521.0626831054688	1041.115844726562	1441.19970703125	-135.9432678222656	1032.875854492188	1372.118896484375	-71.75162506103516	1017.307556152344	1103.889038085938	-45.31974411010742	1029.286743164062	1083.570068359375	-142.1344299316406	1164.818725585938	858.1755981445312	-93.53069305419922	1100.338989257812	840.55615234375	-37.5562744140625	1033.99169921875	1025.222045898438	-40.03448104858398	1170.982543945312	672.2527465820312	-119.4205017089844	1192.928588867188	757.5185546875	-96.78951263427734	1142.640502929688	751.2852783203125	-38.16460418701172	1009.569458007812	1652.72412109375	-380.0186767578125	1168.395263671875	1688.5283203125	-237.1726379394531	1182.102905273438	1695.623901367188	-362.2633361816406	1003.432800292969	1638.284057617188	-243.3009033203125	1028.786499023438	952.7245483398438	-472.3351135253906	1014.117248535156	955.359619140625	-129.4279327392578	1139.220458984375	967.4754028320312	-156.2218780517578	1145.01025390625	958.585693359375	-425.3545837402344	1067.078369140625	488.2892456054688	-437.190185546875	1046.337768554688	630.9109497070312	-469.4218139648438	964.6502075195312	38.80842208862305	-458.8744201660156	1005.560119628906	256.051025390625	-463.17529296875	1170.440185546875	30.83144569396973	-474.6148071289062	1127.505126953125	32.13768768310547	-415.31884765625	1062.99365234375	28.84617042541504	-507.6400146484375	922.8021850585938	35.02062606811523	-378.9826965332031	1064.0107421875	507.1086730957031	-149.0557861328125	1089.923217773438	778.1416625976562	-120.611442565918	979.2532958984375	34.82164001464844	-155.8987274169922	1039.163818359375	387.378173828125	-144.5098114013672	1198.405151367188	27.47636604309082	-184.7831573486328	1138.214233398438	33.8807373046875	-226.8901214599609	1104.463745117188	35.60690307617188	-135.3888244628906	934.747314453125	35.29556274414062	-213.3323974609375	
65	0.64	946.4229736328125	1025.923828125	-205.1168212890625	930.9970703125	1021.696838378906	-380.4102478027344	943.176025390625	1073.321166992188	-300.1500549316406	1182.49267578125	1272.882080078125	-308.9537353515625	917.9181518554688	1207.465576171875	-304.2411804199219	971.49853515625	1475.3662109375	-312.82177734375	1151.46337890625	1387.030883789062	-313.1167907714844	912.298095703125	1337.267456054688	-233.8490753173828	948.6641845703125	1435.845581054688	-413.2576904296875	1051.9921875	1439.043212890625	-486.8640441894531	1036.906372070312	1310.677856445312	-562.3795166015625	1062.728271484375	1096.243530273438	-579.8766479492188	1002.615173339844	1080.35791015625	-492.9442138671875	1162.3896484375	859.579833984375	-520.1069946289062	1102.894653320312	847.3569946289062	-578.5462036132812	1085.919921875	987.9284057617188	-588.1021728515625	1182.998291015625	673.7521362304688	-495.7748718261719	1138.083740234375	767.3405151367188	-575.7957153320312	1188.844482421875	778.4978637695312	-520.9766235351562	1041.124877929688	1441.174926757812	-135.9708404541016	1032.84765625	1372.096069335938	-71.79795837402344	1017.390563964844	1103.846313476562	-45.46093368530273	1029.242309570312	1083.590209960938	-142.2958679199219	1164.994018554688	858.2841796875	-93.86514282226562	1100.55517578125	840.52685546875	-37.86534118652344	1034.094116210938	1025.156005859375	-40.22336578369141	1171.285400390625	672.269287109375	-119.7871704101562	1193.213623046875	757.60791015625	-97.17627716064453	1142.891845703125	751.2860717773438	-38.5587272644043	1009.587097167969	1652.748046875	-380.04736328125	1168.438110351562	1688.5166015625	-237.2252502441406	1182.159423828125	1695.617065429688	-362.3224487304688	1003.484924316406	1638.29736328125	-243.3216552734375	1028.7197265625	952.7066040039062	-472.3783264160156	1014.117614746094	955.359375	-129.4552917480469	1139.226806640625	967.5025634765625	-156.2351989746094	1145.018676757812	958.5993041992188	-425.3892822265625	1067.144653320312	488.2695617675781	-437.1949462890625	1046.380249023438	630.903076171875	-469.4303283691406	964.6510620117188	38.81631088256836	-458.8730163574219	1005.608154296875	256.0466003417969	-463.1728515625	1170.439819335938	30.83264350891113	-474.6157836914062	1127.515380859375	32.12874221801758	-415.3110656738281	1063.001098632812	28.84885215759277	-507.6336669921875	922.798583984375	35.02717208862305	-378.972900390625	1064.401733398438	507.1295776367188	-149.1679992675781	1090.052856445312	778.1962890625	-120.6254959106445	979.2651977539062	34.83775329589844	-155.9050750732422	1039.394409179688	387.3377075195312	-144.6163330078125	1198.422729492188	27.47119903564453	-184.8006439208984	1138.227416992188	33.86061096191406	-226.91455078125	1104.470703125	35.61001968383789	-135.4090728759766	934.77880859375	35.30538177490234	-213.3390808105469	
66	0.65	946.4417114257812	1025.897094726562	-205.1771392822266	931.0540771484375	1021.652160644531	-380.4432373046875	943.2459106445312	1073.315551757812	-300.2131042480469	1182.444946289062	1272.887939453125	-309.0018005371094	917.8644409179688	1207.479248046875	-304.2955017089844	971.4616088867188	1475.367919921875	-312.8722229003906	1151.437866210938	1387.039672851562	-313.1331787109375	912.2427978515625	1337.255493164062	-233.9364776611328	948.6229858398438	1435.861938476562	-413.3314208984375	1052.0009765625	1439.082641601562	-486.905517578125	1036.974975585938	1310.730346679688	-562.4487915039062	1062.885131835938	1096.301879882812	-579.9418334960938	1002.760986328125	1080.379638671875	-493.0241394042969	1162.840942382812	859.8256225585938	-519.9498901367188	1103.378295898438	847.4195556640625	-578.389892578125	1086.226196289062	987.9945678710938	-588.083740234375	1183.4140625	673.9943237304688	-495.6745910644531	1138.665893554688	767.43701171875	-575.5263671875	1189.272827148438	778.7430419921875	-520.85693359375	1041.131103515625	1441.137817382812	-135.9980926513672	1032.809936523438	1372.064575195312	-71.84438323974609	1017.445190429688	1103.797973632812	-45.60513687133789	1029.17919921875	1083.600219726562	-142.4548797607422	1165.1337890625	858.3673095703125	-94.18222808837891	1100.732177734375	840.4886474609375	-38.1815071105957	1034.176391601562	1025.081665039062	-40.4097785949707	1171.574096679688	672.2890014648438	-120.1534881591797	1193.48291015625	757.7054443359375	-97.57978820800781	1143.089965820312	751.2738037109375	-38.97063064575195	1009.596130371094	1652.767333984375	-380.0748901367188	1168.474731445312	1688.494873046875	-237.2729797363281	1182.205810546875	1695.602661132812	-362.375244140625	1003.525451660156	1638.308471679688	-243.3425903320312	1028.61279296875	952.6944580078125	-472.4224548339844	1014.154296875	955.3511352539062	-129.4801330566406	1139.234252929688	967.510498046875	-156.2484283447266	1145.027587890625	958.6100463867188	-425.4312744140625	1067.213745117188	488.2475280761719	-437.2059936523438	1046.419677734375	630.8949584960938	-469.4433898925781	964.6517944335938	38.8223876953125	-458.8722229003906	1005.651672363281	256.0404052734375	-463.174072265625	1170.43994140625	30.83387565612793	-474.616943359375	1127.524536132812	32.12068939208984	-415.3043212890625	1063.0078125	28.85070419311523	-507.6279296875	922.7940673828125	35.03356552124023	-378.9641418457031	1064.7451171875	507.1329650878906	-149.2933654785156	1090.169555664062	778.2445678710938	-120.6530990600586	979.2761840820312	34.85137939453125	-155.9102325439453	1039.578247070312	387.3003845214844	-144.7125396728516	1198.436645507812	27.46589088439941	-184.8178253173828	1138.238159179688	33.843505859375	-226.935546875	1104.476318359375	35.61188888549805	-135.4263458251953	934.8074951171875	35.31259155273438	-213.3433837890625	
